<svg xmlns="http://www.w3.org/2000/svg" xmlns:xlink="http://www.w3.org/1999/xlink" width="512" zoomAndPan="magnify" viewBox="0 0 384 383.999986" height="512" preserveAspectRatio="xMidYMid meet" version="1.0"><defs><g/></defs><rect x="-38.4" width="460.8" fill="#ffffff" y="-38.399999" height="460.799983" fill-opacity="1"/><rect x="-38.4" width="460.8" fill="#602ff7" y="-38.399999" height="460.799983" fill-opacity="1"/><g fill="#ffffff" fill-opacity="1"><g transform="translate(104.213998, 290.999975)"><g><path d="M 26.4375 -1.125 C 29.4375 0 32.25 0 34.875 -1.125 C 37.5 -2.625 39.375 -4.875 40.5 -7.875 L 82.6875 -132.75 C 83.8125 -135.75 83.625 -138.9375 82.125 -142.3125 C 81 -145.3125 79.125 -147.375 76.5 -148.5 C 73.5 -149.625 70.6875 -149.4375 68.0625 -147.9375 C 65.4375 -146.8125 63.5625 -144.5625 62.4375 -141.1875 L 20.25 -16.875 C 19.125 -13.5 19.3125 -10.3125 20.8125 -7.3125 C 21.9375 -4.3125 23.8125 -2.25 26.4375 -1.125 Z M 140.625 -7.875 C 141.75 -4.875 143.625 -2.625 146.25 -1.125 C 148.875 0 151.6875 0 154.6875 -1.125 C 157.3125 -2.25 159.1875 -4.3125 160.3125 -7.3125 C 161.4375 -10.3125 161.625 -13.5 160.875 -16.875 L 101.8125 -186.75 C 100.6875 -190.125 98.8125 -192.5625 96.1875 -194.0625 C 93.5625 -195.1875 90.75 -195.1875 87.75 -194.0625 C 85.125 -192.9375 83.0625 -190.875 81.5625 -187.875 C 80.4375 -184.5 80.4375 -181.3125 81.5625 -178.3125 Z M 140.625 -7.875 "/></g></g></g></svg>